<svg width="13" height="10" viewBox="0 0 13 10" fill="none" xmlns="http://www.w3.org/2000/svg">
<path d="M6.36863 0.161621L11.8846 8.03345C12.0138 8.21824 12.0899 8.43493 12.1046 8.65991C12.1193 8.88489 12.0721 9.10977 11.9681 9.30981C11.8641 9.50986 11.7073 9.67747 11.5147 9.79468C11.3221 9.91188 11.1011 9.97417 10.8756 9.97461H1.23161C1.00614 9.97417 0.785113 9.91188 0.592508 9.79468C0.399904 9.67747 0.243101 9.50986 0.139108 9.30981C0.0351161 9.10977 -0.012089 8.88489 0.00263387 8.65991C0.0173567 8.43493 0.0934284 8.21824 0.222605 8.03345L5.73863 0.161621C5.77456 0.111653 5.82185 0.0707997 5.87663 0.0427246C5.9314 0.0146495 5.99208 0 6.05363 0C6.11518 0 6.17583 0.0146495 6.2306 0.0427246C6.28537 0.0707997 6.3327 0.111653 6.36863 0.161621Z" fill="#4CD964"/>
</svg>
