<svg width="13" height="10" viewBox="0 0 13 10" fill="none" xmlns="http://www.w3.org/2000/svg">
<path d="M6.3686 9.81299L11.8846 1.94116C12.0138 1.75637 12.0898 1.53968 12.1046 1.3147C12.1193 1.08971 12.0721 0.864844 11.9681 0.664795C11.8641 0.464746 11.7073 0.297138 11.5147 0.179932C11.3221 0.0627252 11.101 0.000436134 10.8756 0H1.23158C1.00612 0.000436134 0.785085 0.0627252 0.59248 0.179932C0.399875 0.297138 0.243042 0.464746 0.13905 0.664795C0.0350575 0.864844 -0.0120866 1.08971 0.00263627 1.3147C0.0173591 1.53968 0.0934308 1.75637 0.222607 1.94116L5.7386 9.81299C5.77453 9.86296 5.82183 9.90381 5.8766 9.93188C5.93137 9.95996 5.99205 9.97461 6.0536 9.97461C6.11515 9.97461 6.17583 9.95996 6.2306 9.93188C6.28537 9.90381 6.33267 9.86296 6.3686 9.81299Z" fill="#FE4D4D"/>
</svg>
