<svg width="25" height="25" viewBox="0 0 25 25" fill="none" xmlns="http://www.w3.org/2000/svg">
<path d="M1 8.875C1 6.989 0.999999 6.047 1.586 5.461C2.172 4.875 3.114 4.875 5 4.875H20.25C22.136 4.875 23.078 4.875 23.664 5.461C24.25 6.047 24.25 6.989 24.25 8.875V10.042H1V8.875Z" fill="#00BBB4"/>
<path d="M22.25 4.875H3C1.89543 4.875 1 5.77043 1 6.875V22.25C1 23.3546 1.89543 24.25 3 24.25H22.25C23.3546 24.25 24.25 23.3546 24.25 22.25V6.875C24.25 5.77043 23.3546 4.875 22.25 4.875Z" stroke="#00BBB4" stroke-width="1.2"/>
<path d="M6.164 1V4.875" stroke="#00BBB4" stroke-width="1.2" stroke-linecap="round"/>
<path d="M19.086 1V4.875" stroke="#00BBB4" stroke-width="1.2" stroke-linecap="round"/>
<path d="M10.831 12.625H6.664C6.38786 12.625 6.164 12.8489 6.164 13.125V14.708C6.164 14.9841 6.38786 15.208 6.664 15.208H10.831C11.1071 15.208 11.331 14.9841 11.331 14.708V13.125C11.331 12.8489 11.1071 12.625 10.831 12.625Z" fill="#00BBB4"/>
<path d="M10.831 17.791H6.664C6.38786 17.791 6.164 18.0149 6.164 18.291V19.874C6.164 20.1502 6.38786 20.374 6.664 20.374H10.831C11.1071 20.374 11.331 20.1502 11.331 19.874V18.291C11.331 18.0149 11.1071 17.791 10.831 17.791Z" fill="#00BBB4"/>
<path d="M18.581 12.625H14.414C14.1379 12.625 13.914 12.8489 13.914 13.125V14.708C13.914 14.9841 14.1379 15.208 14.414 15.208H18.581C18.8571 15.208 19.081 14.9841 19.081 14.708V13.125C19.081 12.8489 18.8571 12.625 18.581 12.625Z" fill="#00BBB4"/>
<path d="M18.581 17.791H14.414C14.1379 17.791 13.914 18.0149 13.914 18.291V19.874C13.914 20.1502 14.1379 20.374 14.414 20.374H18.581C18.8571 20.374 19.081 20.1502 19.081 19.874V18.291C19.081 18.0149 18.8571 17.791 18.581 17.791Z" fill="#00BBB4"/>
</svg>
