<svg width="21" height="23" viewBox="0 0 21 23" fill="none" xmlns="http://www.w3.org/2000/svg">
<path d="M10.552 21.637V5.953" stroke="#7300FF" stroke-width="2" stroke-linecap="round" stroke-linejoin="round"/>
<path d="M3.47601 21.638V16.095" stroke="#7300FF" stroke-width="2" stroke-linecap="round" stroke-linejoin="round"/>
<path d="M10.552 5.952C11.9194 5.952 13.028 4.84346 13.028 3.476C13.028 2.10854 11.9194 1 10.552 1C9.18453 1 8.07599 2.10854 8.07599 3.476C8.07599 4.84346 9.18453 5.952 10.552 5.952Z" stroke="#7300FF" stroke-width="2" stroke-linecap="round" stroke-linejoin="round"/>
<path d="M3.476 15.858C4.84346 15.858 5.952 14.7495 5.952 13.382C5.952 12.0145 4.84346 10.906 3.476 10.906C2.10854 10.906 1 12.0145 1 13.382C1 14.7495 2.10854 15.858 3.476 15.858Z" stroke="#7300FF" stroke-width="2" stroke-linecap="round" stroke-linejoin="round"/>
<path d="M3.47601 21.638V16.095" stroke="#7300FF" stroke-width="2" stroke-linecap="round" stroke-linejoin="round"/>
<path d="M3.47601 10.198V2.17902" stroke="#7300FF" stroke-width="2" stroke-linecap="round" stroke-linejoin="round"/>
<path d="M3.47601 10.198V2.17902" stroke="#7300FF" stroke-width="2" stroke-linecap="round" stroke-linejoin="round"/>
<path d="M17.51 21.638V16.095" stroke="#7300FF" stroke-width="2" stroke-linecap="round" stroke-linejoin="round"/>
<path d="M17.509 15.858C18.8764 15.858 19.985 14.7495 19.985 13.382C19.985 12.0145 18.8764 10.906 17.509 10.906C16.1415 10.906 15.033 12.0145 15.033 13.382C15.033 14.7495 16.1415 15.858 17.509 15.858Z" stroke="#7300FF" stroke-width="2" stroke-linecap="round" stroke-linejoin="round"/>
<path d="M17.51 21.638V16.095" stroke="#7300FF" stroke-width="2" stroke-linecap="round" stroke-linejoin="round"/>
<path d="M17.51 10.198V2.17902" stroke="#7300FF" stroke-width="2" stroke-linecap="round" stroke-linejoin="round"/>
<path d="M17.51 10.198V2.17902" stroke="#7300FF" stroke-width="2" stroke-linecap="round" stroke-linejoin="round"/>
</svg>
