<svg width="32" height="32" viewBox="0 0 17 17" fill="none" xmlns="http://www.w3.org/2000/svg">
<path d="M16.362 8.181C16.362 3.66276 12.6992 0 8.181 0C3.66276 0 0 3.66276 0 8.181C0 12.6992 3.66276 16.362 8.181 16.362C12.6992 16.362 16.362 12.6992 16.362 8.181Z" fill="#F2F2F2"/>
<path d="M9.1102 10.739C9.14289 10.7715 9.18176 10.7971 9.22453 10.8143C9.26731 10.8315 9.3131 10.8399 9.35919 10.839C9.40549 10.8399 9.4515 10.8317 9.49458 10.8147C9.53766 10.7977 9.57695 10.7723 9.61015 10.7401C9.64336 10.7078 9.66983 10.6693 9.68803 10.6267C9.70624 10.5841 9.7158 10.5383 9.71619 10.492C9.71559 10.4446 9.70545 10.3977 9.68639 10.3542C9.66732 10.3108 9.63971 10.2716 9.60519 10.239L7.50519 8.22803L9.60519 6.22302C9.63953 6.19031 9.66703 6.1511 9.68608 6.10767C9.70514 6.06423 9.71537 6.01744 9.71619 5.97002C9.71405 5.90077 9.69189 5.83365 9.65236 5.77676C9.61283 5.71988 9.55763 5.67567 9.49348 5.64952C9.42933 5.62337 9.35897 5.61641 9.29094 5.62945C9.2229 5.6425 9.16013 5.675 9.1102 5.72302L6.77419 7.95802C6.73529 7.99221 6.704 8.03417 6.6823 8.08119C6.6606 8.12821 6.64898 8.17924 6.64819 8.23102C6.64869 8.28255 6.66019 8.33339 6.68192 8.38013C6.70364 8.42686 6.7351 8.46843 6.77419 8.50203L9.1102 10.739Z" fill="#4F4F4F"/>
</svg>
