<svg width="22" height="22" viewBox="0 0 22 22" fill="none" xmlns="http://www.w3.org/2000/svg">
<path d="M0.40701 18.7248L3.77502 15.3568C2.39244 13.2775 1.8481 10.752 2.25137 8.28776C2.65464 5.82354 3.97562 3.60326 5.94888 2.07316C7.92214 0.543051 10.4014 -0.183501 12.8884 0.0395265C15.3754 0.262554 17.6859 1.41865 19.3554 3.27543C21.0249 5.13221 21.9298 7.55207 21.8882 10.0487C21.8466 12.5454 20.8616 14.9337 19.1311 16.7339C17.4007 18.534 15.053 19.6124 12.5599 19.7525C10.0669 19.8925 7.6132 19.0838 5.69201 17.4888L2.432 20.7488C2.16235 21.0119 1.79991 21.1581 1.42318 21.1558C1.04646 21.1534 0.685821 21.0028 0.41943 20.7364C0.15304 20.47 0.00234889 20.1093 2.72307e-05 19.7326C-0.00229443 19.3559 0.143923 18.9934 0.40701 18.7238V18.7248ZM6.43502 14.4588C6.49026 14.4898 6.54307 14.5249 6.59301 14.5638C6.6611 14.6442 6.7198 14.7321 6.768 14.8258C8.03574 16.1305 9.76509 16.8852 11.5838 16.9276C13.4024 16.9699 15.165 16.2965 16.4921 15.0522C17.8192 13.808 18.6047 12.0924 18.6795 10.2747C18.7542 8.45709 18.1123 6.68275 16.8919 5.33369C15.6715 3.98462 13.9702 3.1687 12.1542 3.06153C10.3382 2.95436 8.55268 3.56453 7.18206 4.76069C5.81145 5.95685 4.9653 7.64335 4.82577 9.45716C4.68624 11.271 5.26349 13.0671 6.43502 14.4588Z" fill="#7300FF"/>
</svg>
