<svg width="17" height="17" viewBox="0 0 17 17" fill="none" xmlns="http://www.w3.org/2000/svg">
<path d="M16.362 8.181C16.362 3.66276 12.6992 0 8.181 0C3.66276 0 0 3.66276 0 8.181C0 12.6992 3.66276 16.362 8.181 16.362C12.6992 16.362 16.362 12.6992 16.362 8.181Z" fill="#F2F2F2"/>
<path d="M7.25684 5.72431C7.22416 5.69181 7.18527 5.66622 7.14249 5.64904C7.09972 5.63186 7.05394 5.62344 7.00785 5.6243C6.93709 5.62145 6.86716 5.64045 6.80756 5.6787C6.74796 5.71696 6.70159 5.77263 6.67472 5.83816C6.64785 5.90368 6.6418 5.97589 6.65739 6.04497C6.67298 6.11406 6.70944 6.17667 6.76185 6.22431L8.86185 8.23531L6.76185 10.2403C6.72755 10.2731 6.70009 10.3123 6.68104 10.3557C6.66199 10.3991 6.65173 10.4459 6.65086 10.4933C6.65124 10.5396 6.66082 10.5854 6.67902 10.628C6.69723 10.6705 6.7237 10.7091 6.7569 10.7414C6.79011 10.7736 6.82936 10.799 6.87244 10.816C6.91552 10.833 6.96155 10.8412 7.00785 10.8403C7.05394 10.8412 7.09972 10.8328 7.14249 10.8156C7.18527 10.7984 7.22416 10.7728 7.25684 10.7403L9.59284 8.50631C9.63167 8.47185 9.66292 8.42969 9.68461 8.38253C9.7063 8.33536 9.71796 8.28421 9.71885 8.23231C9.71834 8.18092 9.70683 8.13024 9.6851 8.08367C9.66336 8.0371 9.6319 7.99572 9.59284 7.96232L7.25684 5.72431Z" fill="#4F4F4F"/>
</svg>
